<svg width="228" height="26" viewBox="0 0 228 26" fill="none" xmlns="http://www.w3.org/2000/svg">
<path d="M37.661 12.713L35.485 14.923V18H33.785V6.1H35.485V12.747L41.945 6.1H43.883L38.8 11.455L44.206 18H42.217L37.661 12.713ZM46.0038 6.1H47.7038V16.521H54.1468V18H46.0038V6.1ZM56.0975 6.1H57.7975V18H56.0975V6.1ZM71.5942 6.1V18H70.2002L63.0602 9.126V18H61.3602V6.1H62.7542L69.8942 14.974V6.1H71.5942ZM75.1561 6.1H76.8561V18H75.1561V6.1ZM84.2948 12.713L82.1188 14.923V18H80.4188V6.1H82.1188V12.747L88.5788 6.1H90.5168L85.4338 11.455L90.8398 18H88.8508L84.2948 12.713ZM92.6375 6.1H94.3375V18H92.6375V6.1ZM96.1152 18H104.615V19.054H96.1152V18ZM115.623 16.521V18H105.678V16.844L113.158 7.579H105.797V6.1H115.402V7.256L107.956 16.521H115.623ZM117.905 6.1H119.605V18H117.905V6.1ZM131.804 16.521V18H123.168V6.1H131.566V7.579H124.868V11.234H130.835V12.679H124.868V16.521H131.804ZM145.589 18L145.572 9.33L141.271 16.555H140.489L136.188 9.381V18H134.556V6.1H135.95L140.914 14.464L145.81 6.1H147.204L147.221 18H145.589ZM150.793 6.1H152.493V16.521H158.936V18H150.793V6.1ZM169.523 16.521V18H160.887V6.1H169.285V7.579H162.587V11.234H168.554V12.679H162.587V16.521H169.523ZM188.922 6.1L184.944 18H183.159L179.912 8.497L176.665 18H174.846L170.868 6.1H172.619L175.832 15.773L179.181 6.1H180.745L184.026 15.824L187.307 6.1H188.922ZM194.47 18.136C193.574 18.136 192.707 18 191.869 17.728C191.041 17.4447 190.39 17.082 189.914 16.64L190.543 15.314C190.996 15.722 191.574 16.0563 192.277 16.317C192.991 16.5663 193.722 16.691 194.47 16.691C195.456 16.691 196.192 16.5267 196.68 16.198C197.167 15.858 197.411 15.4103 197.411 14.855C197.411 14.447 197.275 14.1183 197.003 13.869C196.742 13.6083 196.413 13.41 196.017 13.274C195.631 13.138 195.082 12.985 194.368 12.815C193.472 12.5997 192.747 12.3843 192.192 12.169C191.648 11.9537 191.177 11.625 190.781 11.183C190.395 10.7297 190.203 10.1233 190.203 9.364C190.203 8.72933 190.367 8.157 190.696 7.647C191.036 7.137 191.546 6.729 192.226 6.423C192.906 6.117 193.75 5.964 194.759 5.964C195.461 5.964 196.153 6.05467 196.833 6.236C197.513 6.41733 198.096 6.678 198.584 7.018L198.023 8.378C197.524 8.06067 196.991 7.82267 196.425 7.664C195.858 7.494 195.303 7.409 194.759 7.409C193.795 7.409 193.07 7.58467 192.583 7.936C192.107 8.28733 191.869 8.74067 191.869 9.296C191.869 9.704 192.005 10.0383 192.277 10.299C192.549 10.5483 192.883 10.7467 193.28 10.894C193.688 11.03 194.237 11.1773 194.929 11.336C195.824 11.5513 196.544 11.7667 197.088 11.982C197.632 12.1973 198.096 12.526 198.482 12.968C198.878 13.41 199.077 14.005 199.077 14.753C199.077 15.3763 198.907 15.9487 198.567 16.47C198.227 16.98 197.711 17.388 197.02 17.694C196.328 17.9887 195.478 18.136 194.47 18.136ZM205.436 12.713L203.26 14.923V18H201.56V6.1H203.26V12.747L209.72 6.1H211.658L206.575 11.455L211.981 18H209.992L205.436 12.713ZM213.779 6.1H215.479V18H213.779V6.1Z" fill="#1E1E1E"/>
<path fill-rule="evenodd" clip-rule="evenodd" d="M12.0057 16.1895C9.61559 16.1895 7.67816 14.296 7.67816 11.9604C7.67816 9.62475 9.61565 7.73145 12.0057 7.73145C14.3958 7.73145 16.3332 9.6248 16.3332 11.9604C16.3332 14.296 14.3957 16.1895 12.0057 16.1895ZM12.0378 5.49683C8.38775 5.49683 5.42889 8.38829 5.42889 11.9551C5.42889 15.522 8.38781 18.4134 12.0378 18.4134C15.6877 18.4134 18.6466 15.5219 18.6466 11.9551C18.6467 8.38829 15.6878 5.49683 12.0378 5.49683ZM18.7527 3.86755C17.8885 3.86755 17.1879 4.55223 17.1879 5.39677C17.1879 6.24132 17.8885 6.92604 18.7527 6.92604C19.617 6.92604 20.3176 6.24137 20.3176 5.39677C20.3176 4.55223 19.617 3.86755 18.7527 3.86755ZM22.1561 17.2731C22.1561 18.6065 21.6197 19.8651 20.6456 20.8169C19.6715 21.7688 18.3836 22.2932 17.0191 22.2932H6.98316C5.6187 22.2932 4.33081 21.7688 3.3567 20.8169C2.38258 19.8651 1.84607 18.6064 1.84607 17.2731V6.82258C1.84607 5.4892 2.38258 4.23064 3.3567 3.27871C4.33087 2.32679 5.61876 1.80249 6.98316 1.80249H17.0191C18.3836 1.80249 19.6714 2.32673 20.6456 3.27871C21.6196 4.2307 22.1561 5.48925 22.1561 6.82258V17.2731H22.1561ZM17.0179 0H6.982C3.14194 0 0 3.07033 0 6.82298V17.2735C0 21.0261 3.14194 24.0965 6.982 24.0965H17.0179C20.8581 24.0965 24 21.0261 24 17.2735V6.82298C24 3.07033 20.8581 0 17.0179 0Z" fill="#1E1E1E"/>
</svg>
