<svg width="60" height="78" viewBox="0 0 60 78" fill="none" xmlns="http://www.w3.org/2000/svg">
<path d="M7.0503 25.547C5.88955 29.0487 2.66336 37.5184 2.71146 37.3871C-1.47791 48.9427 -0.0519933 63.9935 7.62743 76.7176C8.10361 77.497 8.95101 77.9727 9.86445 77.9732H49.9319C50.8452 77.9722 51.6923 77.4967 52.1689 76.7176C60.0979 63.5827 61.2144 48.259 56.9263 36.9231C55.412 32.9443 53.9574 29.2034 52.746 25.5457C57.4033 23.9404 59.7924 21.9126 59.7924 19.4975C59.7924 16.7861 56.7014 14.4945 50.8443 12.8424C51.1082 9.68124 51.9673 6.5985 53.3764 3.75652C53.7766 2.95111 53.7321 1.99605 53.2588 1.23135C52.7854 0.46664 51.9504 0.000926626 51.051 0H8.74529C7.84569 0.000477234 7.01027 0.466011 6.53659 1.23079C6.0629 1.99558 6.01826 2.95091 6.41858 3.75652C7.8283 6.5978 8.68745 9.68024 8.95066 12.8411C3.09101 14.4945 0 16.7848 0 19.4975C0 21.9126 2.3891 23.9417 7.0503 25.547ZM55.2313 40.0102C55.6792 41.4978 56.0308 43.0126 56.2841 44.5453C53.665 46.0428 50.3049 47.7078 46.2663 49.5055C39.9615 52.2176 34.3616 56.3377 29.8962 61.5498C25.431 56.338 19.8316 52.2179 13.5274 49.5055C9.48879 47.7039 6.13002 46.044 3.50955 44.5466C3.76333 43.0144 4.115 41.5001 4.56242 40.0128C8.49702 42.9764 16.2167 46.7941 29.8962 46.7941C43.5757 46.7941 51.2993 42.9751 55.2313 40.0102ZM9.85275 75.3735C4.72338 66.9645 2.38144 57.15 3.1612 47.3309C5.70238 48.7308 8.81678 50.2555 12.4706 51.8803C18.7715 54.5666 24.311 58.7683 28.5964 64.1118V75.3735H9.85275ZM49.9319 75.3735H31.196V64.1118C35.4819 58.7685 41.0218 54.5673 47.3231 51.8816C50.9769 50.2555 54.0913 48.7295 56.6338 47.3322C57.413 57.1522 55.0672 66.9671 49.9319 75.3735ZM57.1927 19.4975C57.1927 20.3476 55.7746 21.7449 51.957 23.0721C51.21 20.6266 50.8054 18.0895 50.7547 15.533C55.1728 16.8667 57.1927 18.4408 57.1927 19.4975ZM8.74009 2.59967H51.0549C47.8131 9.21037 47.246 16.8167 49.4717 23.8351C47.2042 24.4177 44.9036 24.8635 42.5826 25.17L46.3677 21.7631C46.8843 21.2792 46.9187 20.4708 46.445 19.9448C45.9713 19.4187 45.1638 19.3684 44.6285 19.8316L38.1294 25.6808C37.8025 25.9958 37.6499 26.4505 37.7206 26.8989C37.7912 27.3473 38.0763 27.733 38.4842 27.9322C45.2343 34.0141 44.8157 33.7957 45.4942 33.7957C46.0322 33.7955 46.5146 33.4639 46.7074 32.9616C46.9002 32.4593 46.7636 31.8902 46.3638 31.5301L42.2563 27.8334C44.9555 27.504 47.6299 26.9963 50.262 26.3139C51.48 29.995 52.876 33.5929 54.3292 37.4079C43.2247 46.5068 16.5677 46.5068 5.46581 37.4079C6.90602 33.6228 8.31244 30.0054 9.53299 26.3139C12.1644 26.9951 14.8379 27.5023 17.5361 27.8321L13.4286 31.5288C13.0278 31.8887 12.8906 32.4585 13.0835 32.9614C13.2764 33.4643 13.7595 33.7961 14.2982 33.7957C14.991 33.7957 14.7167 33.8672 21.6669 27.6124C21.9406 27.3659 22.0968 27.0149 22.0968 26.6466C22.0968 26.2783 21.9406 25.9273 21.6669 25.6808L15.1678 19.8316C14.6325 19.3684 13.825 19.4187 13.3513 19.9448C12.8776 20.4708 12.912 21.2792 13.4286 21.7631L17.2137 25.17C14.8925 24.8648 12.5918 24.419 10.3246 23.8351C12.5525 16.8169 11.9849 9.20952 8.74009 2.59967ZM9.04165 15.5356C8.9905 18.0922 8.58544 20.6293 7.838 23.0747C4.01909 21.7462 2.59967 20.3476 2.59967 19.4975C2.59967 18.4408 4.62091 16.8667 9.04165 15.5291V15.5356Z" fill="#9F9F9F"/>
<path d="M29.8964 32.4963C32.2213 32.3008 33.9583 30.2744 33.7959 27.9469C33.9583 25.6194 32.2213 23.5929 29.8964 23.3975C27.5714 23.5929 25.8344 25.6194 25.9968 27.9469C25.8344 30.2744 27.5714 32.3008 29.8964 32.4963ZM29.8964 25.9971C30.5892 25.9971 31.1962 26.907 31.1962 27.9469C31.1962 28.9868 30.5892 29.8966 29.8964 29.8966C29.2035 29.8966 28.5965 28.9868 28.5965 27.9469C28.5965 26.907 29.2035 25.9971 29.8964 25.9971Z" fill="#9F9F9F"/>
</svg>
